<svg width="490" height="642" viewBox="0 0 490 642" fill="none" xmlns="http://www.w3.org/2000/svg">
<path d="M100.911 264.73C95.602 261.644 91.4617 256.89 89.1341 251.208C86.8066 245.526 86.4223 239.233 88.041 233.31C81.791 227.7 76.381 222.41 71.971 217.57C47.511 190.7 32.701 184.43 24.211 184.43C23.5022 184.426 22.794 184.469 22.091 184.56C15.601 185.45 9.74102 190.98 4.67102 201.02C-7.97898 226.02 7.47102 265.9 22.421 304.44C25.581 312.57 28.841 320.98 31.801 329.16C39.861 351.43 43.581 377.41 44.091 403.16C51.691 386.08 59.811 369.48 68.191 354.03C83.1926 326.48 100.132 300.03 118.881 274.88C112.874 271.58 106.884 268.197 100.911 264.73Z" fill="white"/>
<path d="M348.601 367.72C348.891 364.85 349.211 362.04 349.601 359.27C275.711 344.367 204.257 319.242 137.301 284.62C118.393 309.734 101.363 336.209 86.351 363.83C60.351 411.71 37.531 469.51 25.211 518.43C11.081 574.53 11.571 614.69 26.561 631.52C37.191 643.44 64.741 647.84 100.191 629.42L107.911 624.48C136.791 606.09 161.731 590.2 203.761 532.31C204.557 531.214 205.561 530.286 206.715 529.578C207.87 528.87 209.153 528.396 210.49 528.184C211.828 527.972 213.194 528.025 214.511 528.341C215.828 528.657 217.07 529.229 218.166 530.025C219.262 530.821 220.19 531.825 220.898 532.979C221.606 534.134 222.08 535.417 222.292 536.754C222.504 538.092 222.451 539.458 222.135 540.775C221.819 542.092 221.247 543.334 220.451 544.43C212.821 554.94 205.681 564.17 198.941 572.33C234.281 570.67 257.271 589.25 277.591 605.67C293.661 618.67 307.591 629.88 325.591 630.94C360.451 632.94 374.881 590.53 375.011 590.11C384.951 557.37 375.931 526.53 365.501 490.81C355.281 455.83 343.701 416.19 348.601 367.72Z" fill="white"/>
<path d="M355.441 323.93C288.143 309.107 223.006 285.776 161.601 254.5C157.794 258.913 154.011 263.433 150.251 268.06C214.178 300.724 282.252 324.536 352.601 338.84C353.494 333.68 354.441 328.71 355.441 323.93Z" fill="white"/>
<path d="M476.521 378.93C475.221 371.05 466.611 365.93 453.521 365.35C449.201 365.15 444.521 364.93 439.671 364.68C434.84 368.62 428.796 370.772 422.561 370.77C421.445 370.768 420.33 370.701 419.221 370.57C402.554 368.57 386.114 366.107 369.901 363.18C369.641 365.37 369.391 367.58 369.161 369.84C365.731 403.69 371.001 432.61 378.161 459.84C387.671 448.06 402.741 436.42 426.381 427.12C462.201 413.01 478.721 392.2 476.521 378.93Z" fill="white"/>
<path d="M423.311 336.18C314.731 320.85 216.661 287.4 123.491 233.93C121.74 232.917 119.754 232.382 117.731 232.38C116.284 232.374 114.851 232.654 113.512 233.203C112.174 233.752 110.957 234.56 109.931 235.58L109.541 235.96C108.826 236.705 108.293 237.606 107.982 238.591C107.672 239.576 107.593 240.619 107.751 241.64C107.887 242.724 108.271 243.762 108.875 244.673C109.479 245.584 110.285 246.343 111.231 246.89C207.681 302.66 309.231 336.41 421.691 350.07C422.7 350.192 423.723 350.08 424.682 349.744C425.641 349.408 426.51 348.855 427.221 348.13C427.953 347.399 428.507 346.509 428.84 345.529C429.173 344.549 429.276 343.506 429.141 342.48V342.17C428.963 340.669 428.296 339.269 427.242 338.186C426.188 337.103 424.806 336.398 423.311 336.18V336.18Z" fill="white"/>
<path d="M133.761 216.03C224.611 268.17 320.261 300.8 426.201 315.75C427.966 315.998 429.701 316.423 431.381 317.02C466.981 281.02 489.381 229.29 489.201 182.29C488.995 133.876 469.619 87.5141 435.313 53.351C401.008 19.1878 354.566 0.00484978 306.151 0H305.351C204.401 0.43 122.601 82.93 123.061 183.85C123.061 189.66 123.261 201.85 124.191 212.41C127.555 213.093 130.787 214.316 133.761 216.03V216.03ZM206.071 72.76C220.106 59.1733 236.77 48.5975 255.039 41.6813C273.307 34.7651 292.797 31.6544 312.311 32.54C386.601 35.63 447.201 96.27 450.251 170.6C451.79 206.65 439.73 241.962 416.461 269.54C408.741 278.69 391.411 286.33 378.941 286.33C378.261 286.33 377.601 286.33 376.941 286.26C300.361 280.79 221.111 247.49 185.421 218.94C174.621 210.3 161.981 194.28 161.881 177.53V177.27C161.726 157.757 165.567 138.418 173.167 120.444C180.766 102.471 191.964 86.2432 206.071 72.76V72.76Z" fill="white"/>
<path d="M209.491 183.29C200.421 165.78 203.671 143.29 208.281 127.2C212.811 111.33 223.351 92.1399 236.051 73.4599C236.262 73.1759 236.355 72.8214 236.31 72.4705C236.266 72.1195 236.087 71.7994 235.812 71.5772C235.537 71.355 235.186 71.2478 234.834 71.2781C234.481 71.3085 234.154 71.4739 233.921 71.7399C209.311 98.6699 188.781 131.52 188.921 169.99C188.962 181.492 193.566 192.508 201.721 200.62C222.221 220.94 257.351 237.87 277.311 247.31C277.621 247.454 277.974 247.477 278.3 247.375C278.626 247.272 278.902 247.051 279.074 246.756C279.246 246.46 279.3 246.111 279.228 245.777C279.155 245.442 278.96 245.148 278.681 244.95C264.761 235.3 244.871 221.53 225.681 204.25C219.731 198.82 212.081 188.31 209.491 183.29Z" fill="white"/>
<path d="M408.081 169.35C410.837 169.35 413.071 167.116 413.071 164.36C413.071 161.604 410.837 159.37 408.081 159.37C405.325 159.37 403.091 161.604 403.091 164.36C403.091 167.116 405.325 169.35 408.081 169.35Z" fill="white"/>
<path d="M404.141 147.43C412.95 147.43 420.091 140.289 420.091 131.48C420.091 122.671 412.95 115.53 404.141 115.53C395.332 115.53 388.191 122.671 388.191 131.48C388.191 140.289 395.332 147.43 404.141 147.43Z" fill="white"/>
<path d="M376.781 119.03C383.077 119.03 388.181 113.926 388.181 107.63C388.181 101.334 383.077 96.23 376.781 96.23C370.485 96.23 365.381 101.334 365.381 107.63C365.381 113.926 370.485 119.03 376.781 119.03Z" fill="white"/>
</svg>
