<svg width="402" height="476" viewBox="0 0 402 476" fill="none" xmlns="http://www.w3.org/2000/svg">
<path fill-rule="evenodd" clip-rule="evenodd" d="M265.806 43.6826L286.071 6.27963C287.406 3.80563 286.926 1.90263 284.647 0.57163C282.169 -0.57137 280.267 -0.000370261 278.939 2.28563L258.379 39.9706C240.297 31.9766 221.174 27.9796 200.995 27.9796C180.821 27.9796 161.691 31.9766 143.608 39.9706L123.052 2.28663C121.724 0.000629667 119.818 -0.57037 117.344 0.57263C115.059 1.90363 114.586 3.80663 115.918 6.28063L136.189 43.6826C115.63 54.1496 99.266 68.7586 87.081 87.5066C74.9 106.256 68.808 126.766 68.808 149.032H332.903C332.903 126.766 326.812 106.255 314.63 87.5066C302.443 68.7586 286.178 54.1486 265.806 43.6826ZM148.605 98.0686C146.418 100.259 143.802 101.353 140.756 101.353C137.71 101.353 135.142 100.26 133.046 98.0686C130.955 95.8816 129.906 93.2636 129.906 90.2186C129.906 87.1726 130.955 84.5546 133.046 82.3646C135.139 80.1746 137.711 79.0826 140.756 79.0826C143.798 79.0826 146.415 80.1736 148.605 82.3646C150.795 84.5546 151.889 87.1726 151.889 90.2186C151.889 93.2646 150.795 95.8786 148.605 98.0686ZM268.95 98.0686C266.852 100.259 264.282 101.353 261.237 101.353C258.191 101.353 255.58 100.26 253.389 98.0686C251.199 95.8816 250.108 93.2636 250.108 90.2186C250.108 87.1726 251.199 84.5546 253.389 82.3646C255.579 80.1746 258.191 79.0826 261.237 79.0826C264.282 79.0826 266.852 80.1736 268.95 82.3646C271.038 84.5546 272.089 87.1726 272.089 90.2186C272.089 93.2646 271.041 95.8786 268.95 98.0686ZM8.564 162.451C14.272 156.738 21.225 153.885 29.408 153.885C37.4 153.885 44.255 156.741 49.964 162.451C55.672 168.159 58.529 175.01 58.529 183.006V305.778C58.529 313.957 55.722 320.904 50.104 326.615C44.49 332.326 37.591 335.177 29.405 335.177C21.221 335.177 14.272 332.327 8.564 326.615C2.855 320.904 0 313.957 0 305.778V183.006C0 175.013 2.856 168.162 8.564 162.451ZM79.091 371.727C73.001 365.635 69.955 358.212 69.955 349.458V159.309H332.038V349.458C332.038 358.212 328.992 365.635 322.9 371.727C316.81 377.818 309.48 380.857 300.92 380.857H279.504V445.667C279.504 453.853 276.653 460.796 270.945 466.508C265.237 472.219 258.29 475.073 250.111 475.073C241.925 475.073 234.978 472.219 229.263 466.508C223.555 460.796 220.701 453.853 220.701 445.667V380.857H181.304V445.667C181.304 453.853 178.451 460.796 172.74 466.508C167.029 472.219 160.084 475.073 151.896 475.073C143.903 475.073 137.049 472.219 131.341 466.508C125.632 460.796 122.777 453.853 122.777 445.667L122.489 380.857H101.361C92.603 380.857 85.182 377.812 79.091 371.727ZM372.584 153.885C380.77 153.885 387.717 156.693 393.425 162.307C399.14 167.922 401.993 174.823 401.993 183.006V305.778C401.993 313.957 399.14 320.904 393.425 326.615C387.717 332.326 380.77 335.177 372.584 335.177C364.593 335.177 357.741 332.327 352.033 326.615C346.322 320.904 343.465 313.957 343.465 305.778V183.006C343.465 174.824 346.322 167.923 352.033 162.307C357.741 156.693 364.593 153.885 372.584 153.885Z" fill="url(#paint0_linear)"/>
<defs>
<linearGradient id="paint0_linear" x1="125" y1="344" x2="340" y2="109" gradientUnits="userSpaceOnUse">
<stop stop-color="#7540EC"/>
<stop offset="1" stop-color="#3598EC"/>
</linearGradient>
</defs>
</svg>
