<svg xmlns="http://www.w3.org/2000/svg" viewBox="0 0 296 251"><defs><pattern id="a" data-name="New Pattern Swatch 6" width="73.701" height="84.255" patternUnits="userSpaceOnUse"><path fill="none" d="M0 0h73.701v84.255H0z"/><path fill="#849ac9" d="M47.035 84.246l5.855-8.902 20.926 32.444 20.962-32.021 5.589 8.679-26.596 40.687-26.736-40.887z"/><path fill="#849ac9" d="M56.566 69.761l17.248-26.385 5.897 9.252-11.68 17.133 5.783 8.856L85.53 61.405l5.562 8.356-17.278 26.385-17.248-26.385zM-26.666 84.246l5.855-8.902L.115 107.788l20.962-32.021 5.589 8.679L.071 125.133l-26.737-40.887z"/><path fill="#849ac9" d="M-17.135 69.761L.113 43.376l5.897 9.252-11.68 17.133 5.783 8.856 11.716-17.212 5.563 8.356L.113 96.146l-17.248-26.385zM47.035-.008l5.855-8.903 20.926 32.445L94.778-8.488l5.589 8.68-26.596 40.687L47.035-.008z"/><path fill="#849ac9" d="M56.566-14.494l17.248-26.385 5.897 9.252-11.68 17.133 5.783 8.856L85.53-22.85l5.562 8.356-17.278 26.385-17.248-26.385zM10.184 42.119l5.856-8.902 20.925 32.444 20.963-32.022 5.589 8.68-26.596 40.687-26.737-40.887z"/><path fill="#849ac9" d="M19.715 27.633L36.964 1.248l5.897 9.253-11.68 17.132 5.783 8.857L48.68 19.277l5.562 8.356-17.278 26.385-17.249-26.385zM-26.666-.008l5.855-8.903L.115 23.534 21.077-8.488l5.589 8.68L.071 40.879-26.666-.008z"/><path fill="#849ac9" d="M-17.135-14.494L.113-40.879l5.897 9.252-11.68 17.133L.113-5.638 11.829-22.85l5.563 8.356L.113 11.891l-17.248-26.385z"/></pattern></defs><g data-name="Слой 2"><path fill="url(#a)" d="M0 0h296v251H0z" data-name="Layer 1"/></g></svg>