<svg xmlns="http://www.w3.org/2000/svg" viewBox="0 0 1487.611 283.394"><g data-name="Слой 2"><g data-name="Layer 1" fill="#bfd3ff"><path d="M1487.611 3.842V0h-2.512l2.512 3.842zM1362.437 0h-23.405l23.967 36.662L1387.008 0h-23.422l-.587.861-.562-.861zm65.415 0l8.093 12.376L1444.035 0h-16.183zm59.759 170.826v-42.138l-13.774 21.069 13.774 21.069zM1470.087 0h-7.587l-8.129 12.359 33.24 50.832v-36.02L1470.087 0zm17.524 100.32v-8.182l-8.761-13.606-42.814 65.401-42.739-66.265-11.96 18.183 54.608 83.508 51.666-79.039z"/><path d="M1400.804 66.265l35.229 53.889 35.289-53.889-11.36-17.067-23.929 35.155-11.812-18.088 23.855-34.993-12.043-18.896-35.229 53.889zm-37.802-5.824L1324.019 0h-7.586l-8.129 12.359 54.607 83.508 54.32-83.099L1409.01 0h-6.441l-39.567 60.441zm-13.432 222.953h24.351l1.122-1.646-12.044-18.897-13.429 20.543zm138.041-89.239l-21.28-32.995-11.96 18.183 33.24 50.832v-36.02zm0 64.967l-8.761-13.607-24.797 37.879h23.04l10.518-16.091v-8.181zm-94.314-14.47l-11.96 18.182 13.445 20.56h23.502l-24.987-38.742zm66.665-28.47l-23.929 35.155-11.812-18.088 23.855-34.993-12.043-18.897-35.229 53.89 32.782 50.145h4.898l32.838-50.145-11.36-17.067zm-54.146-54.159l-42.814 65.402-42.738-66.265-11.96 18.183 54.607 83.508 54.32-83.1-11.415-17.728zM1216.369 0h-23.404l23.967 36.662L1240.94 0h-23.422l-.586.861-.563-.861zm73.509 12.376L1297.967 0h-16.182l8.093 12.376zm54.32 83.883l-11.415-17.727-42.815 65.401-42.738-66.265-11.96 18.183 54.608 83.508 54.32-83.1z"/><path d="M1289.966 120.154l35.289-53.889-11.361-17.067-23.928 35.155-11.812-18.088 23.855-34.993-12.043-18.896h-.001l-35.228 53.889 35.229 53.889zm-73.031-59.713L1177.952 0h-7.586l-8.13 12.359 54.608 83.508 54.32-83.099L1262.943 0h-6.441l-39.567 60.441zm-13.433 222.953h24.351l1.123-1.646-12.044-18.897-13.43 20.543zm159.497-79.748l35.289-53.889-11.36-17.067-23.929 35.155-11.812-18.088 23.856-34.992-12.044-18.898-35.229 53.89 35.229 53.889zm-115.769 41.006l-11.96 18.182 13.445 20.56h23.502l-24.987-38.742zm85.553.863l-24.797 37.879h23.04l13.172-20.151-11.415-17.728zm-18.889-29.333l-23.928 35.155-11.812-18.088 23.855-34.993-12.043-18.897h-.001l-35.228 53.89 32.781 50.145h4.899l32.838-50.145-11.361-17.067zm-54.145-54.159l-42.814 65.402-42.739-66.265-11.96 18.183 54.608 83.508 54.32-83.1-11.415-17.728zM1070.302 0h-23.405l23.968 36.662L1094.873 0h-23.422l-.586.861-.563-.861zm73.509 12.376L1151.9 0h-16.182l8.093 12.376zm54.32 83.883l-11.416-17.727-42.814 65.401-42.738-66.265-11.96 18.183 54.608 83.508 54.32-83.1z"/><path d="M1143.898 120.154l35.29-53.889-11.361-17.067-23.929 35.155-11.811-18.088 23.855-34.993-12.043-18.896h-.001l-35.229 53.889 35.229 53.889zm-73.03-59.713L1031.885 0h-7.586l-8.13 12.359 54.608 83.508 54.32-83.099L1116.876 0h-6.441l-39.567 60.441zm-13.433 222.953h24.351l1.123-1.646-12.044-18.897-13.43 20.543zm159.497-79.748l35.289-53.889-11.36-17.067-23.929 35.155-11.812-18.088 23.856-34.992-12.044-18.898-35.229 53.89 35.229 53.889zm-30.217 41.869l-24.797 37.879h23.04l13.173-20.151-11.416-17.728zm-85.552-.863l-11.96 18.182 13.444 20.56h23.503l-24.987-38.742zm66.664-28.47l-23.929 35.155-11.811-18.088 23.855-34.993-12.043-18.897h-.001l-35.229 53.89 32.782 50.145h4.899l32.838-50.145-11.361-17.067zm-54.145-54.159l-42.814 65.402-42.739-66.265-11.96 18.183 54.608 83.508 54.32-83.1-11.415-17.728zM924.235 0H900.83l23.968 36.662L948.806 0h-23.422l-.586.861-.563-.861zm73.509 12.376L1005.833 0h-16.182l8.093 12.376zm54.319 83.883l-11.415-17.727-42.814 65.401-42.738-66.265-11.96 18.183 54.608 83.508 54.319-83.1z"/><path d="M997.831 120.154l35.29-53.889-11.361-17.067-23.929 35.155-11.811-18.088 23.855-34.993-12.044-18.896-35.229 53.889 35.229 53.889zm-73.03-59.713L885.818 0h-7.586l-8.13 12.359 54.608 83.508 54.32-83.099L970.809 0h-6.441l-39.567 60.441zm-13.433 222.953h24.351l1.122-1.646-12.043-18.897-13.43 20.543zm159.497-79.748l35.289-53.889-11.36-17.067-23.929 35.155-11.812-18.088 23.856-34.992-12.044-18.898-35.229 53.89 35.229 53.889zm-30.217 41.869l-24.797 37.879h23.04l13.172-20.151-11.415-17.728zm-85.552-.863l-11.96 18.182 13.444 20.56h23.503l-24.987-38.742zm66.664-28.47l-23.929 35.155-11.811-18.088 23.855-34.993-12.044-18.897-35.229 53.89 32.782 50.145h4.899l32.838-50.145-11.361-17.067zm-54.145-54.159l-42.814 65.402-42.739-66.265-11.96 18.183 54.608 83.508 54.32-83.1-11.415-17.728zM778.168 0h-23.405l23.968 36.662L802.739 0h-23.422l-.586.861-.563-.861zm73.508 12.376L859.766 0h-16.182l8.092 12.376zm54.32 83.883l-11.415-17.727-42.814 65.401-42.739-66.265-11.959 18.183 54.607 83.508 54.32-83.1z"/><path d="M851.764 120.154l35.289-53.889-11.36-17.067-23.929 35.155-11.812-18.088 23.856-34.993-12.044-18.896-35.229 53.889 35.229 53.889zm-73.031-59.713L739.751 0h-7.587l-8.129 12.359 54.608 83.508 54.32-83.099L824.741 0H818.3l-39.567 60.441zm-13.432 222.953h24.351l1.122-1.646-12.043-18.897-13.43 20.543zm159.497-79.748l35.289-53.889-11.36-17.067-23.929 35.155-11.812-18.088 23.855-34.992-12.043-18.898-35.229 53.89 35.229 53.889zm-115.77 41.006l-11.959 18.182 13.444 20.56h23.503l-24.988-38.742zm85.553.863l-24.797 37.879h23.04l13.172-20.151-11.415-17.728zm-18.888-29.333l-23.929 35.155-11.812-18.088 23.856-34.993-12.044-18.897-35.229 53.89 32.782 50.145h4.898l32.838-50.145-11.36-17.067zm-54.145-54.159l-42.815 65.402-42.738-66.265-11.96 18.183 54.608 83.508 54.32-83.1-11.415-17.728zM632.101 0h-23.405l23.967 36.662L656.672 0H633.25l-.587.861-.562-.861zm73.508 12.376L713.699 0h-16.183l8.093 12.376zm54.32 83.883l-11.415-17.727-42.814 65.401-42.739-66.265-11.96 18.183 54.608 83.508 54.32-83.1z"/><path d="M705.697 120.154l35.289-53.889-11.36-17.067-23.929 35.155-11.812-18.088 23.856-34.993-12.044-18.896-35.229 53.889 35.229 53.889zm-73.031-59.713L593.684 0h-7.587l-8.129 12.359 54.608 83.508 54.32-83.099L678.674 0h-6.441l-39.567 60.441zm-13.432 222.953h24.351l1.122-1.646-12.044-18.897-13.429 20.543zm159.497-79.748l35.289-53.889-11.361-17.067-23.928 35.155-11.812-18.088 23.855-34.992-12.043-18.898-35.229 53.89 35.229 53.889zm-30.217 41.869l-24.797 37.879h23.04l13.172-20.151-11.415-17.728zm-85.553-.863l-11.96 18.182 13.445 20.56h23.503l-24.988-38.742zm66.665-28.47l-23.929 35.155-11.812-18.088 23.856-34.993-12.044-18.897-35.229 53.89 32.782 50.145h4.898l32.838-50.145-11.36-17.067zm-54.146-54.159l-42.814 65.402-42.738-66.265-11.96 18.183 54.608 83.508 54.32-83.1-11.416-17.728zM486.034 0h-23.405l23.967 36.662L510.605 0h-23.422l-.587.861-.562-.861zm73.508 12.376L567.632 0h-16.183l8.093 12.376zm54.32 83.883l-11.415-17.727-42.814 65.401-42.739-66.265-11.96 18.183 54.608 83.508 54.32-83.1z"/><path d="M559.63 120.154l35.289-53.889-11.36-17.067-23.929 35.155-11.812-18.088 23.856-34.993-12.044-18.896-35.229 53.889 35.229 53.889zm-73.031-59.713L447.616 0h-7.586l-8.129 12.359 54.607 83.508 54.32-83.099L532.607 0h-6.441l-39.567 60.441zm-13.432 222.953h24.351l1.122-1.646-12.044-18.897-13.429 20.543zm159.496-79.748l35.29-53.889-11.361-17.067-23.929 35.155-11.811-18.088 23.855-34.992-12.044-18.898-35.229 53.89 35.229 53.889zm-30.216 41.869l-24.797 37.879h23.04l13.172-20.151-11.415-17.728zm-85.553-.863l-11.96 18.182 13.445 20.56h23.502l-24.987-38.742zm66.665-28.47l-23.929 35.155-11.812-18.088 23.856-34.993-12.044-18.897-35.229 53.89 32.782 50.145h4.898l32.838-50.145-11.36-17.067zm-54.146-54.159l-42.814 65.402-42.738-66.265-11.96 18.183 54.607 83.508 54.32-83.1-11.415-17.728zM339.966 0h-23.404l23.967 36.662L364.537 0h-23.421l-.587.861-.563-.861zm73.509 12.376L421.565 0h-16.183l8.093 12.376zm54.32 83.883L456.38 78.532l-42.815 65.401-42.738-66.265-11.96 18.183 54.608 83.508 54.32-83.1z"/><path d="M413.563 120.154l35.289-53.889-11.36-17.067-23.929 35.155-11.812-18.088 23.855-34.993-12.043-18.896-35.229 53.889 35.229 53.889zm-73.031-59.713L301.549 0h-7.586l-8.13 12.359 54.608 83.508 54.32-83.099L386.54 0h-6.441l-39.567 60.441zm-13.433 222.953h24.352l1.122-1.646-12.044-18.897-13.43 20.543zm159.497-79.748l35.289-53.889-11.36-17.067-23.929 35.155-11.812-18.088 23.856-34.992-12.044-18.898-35.229 53.89 35.229 53.889zm-30.216 41.869l-24.797 37.879h23.04l13.172-20.151-11.415-17.728zm-85.553-.863l-11.96 18.182 13.445 20.56h23.502l-24.987-38.742zm66.665-28.47l-23.929 35.155-11.812-18.088 23.855-34.993-12.043-18.897-35.229 53.89 32.782 50.145h4.898l32.838-50.145-11.36-17.067zm-54.146-54.159l-42.814 65.402-42.739-66.265-11.96 18.183 54.608 83.508 54.32-83.1-11.415-17.728zM193.899 0h-23.404l23.967 36.662L218.47 0h-23.422l-.586.861-.563-.861zm73.509 12.376L275.497 0h-16.182l8.093 12.376zm54.32 83.883l-11.416-17.727-42.814 65.401-42.738-66.265-11.96 18.183 54.608 83.508 54.32-83.1z"/><path d="M267.495 120.154l35.29-53.889-11.361-17.067-23.929 35.155-11.811-18.088 23.855-34.993-12.043-18.896h-.001l-35.228 53.889 35.228 53.889zm-73.03-59.713L155.482 0h-7.586l-8.13 12.359 54.608 83.508 54.32-83.099L240.473 0h-6.441l-39.567 60.441zm-13.433 222.953h24.351l1.123-1.646-12.044-18.897-13.43 20.543zm159.497-79.748l35.289-53.889-11.36-17.067-23.929 35.155-11.812-18.088 23.856-34.992-12.044-18.898-35.229 53.89 35.229 53.889zm-30.217 41.869l-24.796 37.879h23.039l13.173-20.151-11.416-17.728zm-85.552-.863l-11.96 18.182 13.445 20.56h23.502l-24.987-38.742zm66.664-28.47l-23.929 35.155-11.811-18.088 23.855-34.993-12.043-18.897h-.001l-35.228 53.89 32.781 50.145h4.899l32.838-50.145-11.361-17.067zm-54.145-54.159l-42.814 65.402-42.739-66.265-11.96 18.183 54.608 83.508 54.32-83.1-11.415-17.728zM47.832 0H24.427l23.968 36.662L72.403 0H48.981l-.586.861L47.832 0zm73.509 12.376L129.43 0h-16.182l8.093 12.376zm54.319 83.883l-11.415-17.727-42.814 65.401-42.738-66.265-11.96 18.183 54.608 83.508 54.319-83.1z"/><path d="M121.428 120.154l35.29-53.889-11.361-17.067-23.929 35.155-11.811-18.088 23.855-34.993-12.043-18.896h-.001L86.199 66.265l35.229 53.889zm-73.03-59.713L9.415 0H1.829L0 2.78v19.214l48.307 73.873 54.32-83.099L94.406 0h-6.441L48.398 60.441zM34.965 283.394h24.351l1.122-1.646-12.043-18.897-13.43 20.543zm159.497-79.748l35.289-53.889-11.36-17.067-23.929 35.155-11.812-18.088 23.856-34.992-12.044-18.898-35.229 53.89 35.229 53.889zm-30.217 41.869l-24.797 37.879h23.04l13.172-20.151-11.415-17.728zm-85.552-.863l-11.96 18.182 13.444 20.56h23.503l-24.987-38.742zm66.664-28.47l-23.929 35.155-11.811-18.088 23.855-34.993-12.043-18.897h-.001l-35.229 53.89 32.782 50.145h4.899l32.838-50.145-11.361-17.067zm-54.145-54.159l-42.814 65.402L5.659 161.16 0 169.764v19.214l48.307 73.873 54.32-83.1-11.415-17.728zM18.178 78.532L0 106.3v35.232l29.593-45.273-11.415-17.727zM0 50.264v32.265l10.65-16.264L0 50.264z"/><path d="M48.395 203.646l35.289-53.889-11.36-17.067-23.929 35.155-11.812-18.088 23.855-34.992-12.043-18.898-35.229 53.89 35.229 53.889zm-30.217 41.869L0 273.284v10.11h16.421l13.172-20.151-11.415-17.728zM0 217.248v32.265l10.65-16.264L0 217.248z"/></g></g></svg>