<svg xmlns="http://www.w3.org/2000/svg" height="106" width="176"><g data-name="Слой 2"><g data-name="Capa 1" transform="matrix(.17417 .17484 -.17417 .17484 88.772254 -36.824605)"><path d="M292.073 360.728L152.436 221.091l114.036-114.036A370.253 370.253 0 0 1 466.618 3.491L487.563 0h3.491A20.858 20.858 0 0 1 512 20.946v3.491l-2.327 22.109a369 369 0 0 1-102.4 198.982z" fill="#d5e3ef"/><path d="M417.745 153.6L251.345 320l40.727 40.727 114.036-114.036c54.692-54.691 89.6-123.345 102.4-198.982l4.655-22.109v-3.491a19.271 19.271 0 0 0-5.818-13.964 366.512 366.512 0 0 1-89.6 145.455z" fill="#b0c4d9"/><path d="M297.891 471.273a18.262 18.262 0 0 0-25.6 0c-9.309 9.309-15.127 38.4-16.291 39.564V512s1.164 1.164 1.164 0c1.164 0 29.091-5.818 39.564-16.291 9.308-6.981 9.308-17.454 1.163-24.436zM41.891 215.273a18.262 18.262 0 0 0-25.6 0c-9.309 9.309-15.127 37.236-15.127 38.4v1.164s1.164 1.164 1.164 0c1.164 0 29.091-5.818 39.564-16.291 8.144-5.818 8.144-16.291-.001-23.273zM124.509 388.655c-20.945-20.945-55.855-20.945-76.8 0C18.618 417.746 1.164 502.691 0 506.182c0 2.327 0 3.491 1.164 4.655C3.491 512 5.819 512 8.146 512c3.491-1.164 88.436-17.455 117.527-47.709a52.379 52.379 0 0 0-1.164-75.636z" fill="#f79548"/><path d="M121.018 389.818a27.393 27.393 0 0 0-38.4 0C67.491 404.945 59.345 446.836 59.345 448c0 1.164 0 2.327 1.164 2.327 1.164 1.164 1.164 1.164 2.327 1.164 2.327 0 44.218-9.309 58.182-23.273a27.393 27.393 0 0 0 0-38.4z" fill="#fcbb76"/><path fill="#99b4cd" d="M338.618 384l-34.909 34.909L268.8 384l69.818-69.818z"/><path d="M300.218 375.855l22.109-22.109a55.412 55.412 0 0 0 16.291-39.564L268.8 384l34.909 34.909 11.636-11.636-15.127-15.127a11.25 11.25 0 0 1 0-16.291z" fill="#6c9abb"/><path d="M326.982 488.728l-46.545-46.545 83.782-83.783a32.491 32.491 0 0 1 23.273-9.309 32.525 32.525 0 0 1 32.582 32.582 32.492 32.492 0 0 1-9.309 23.273z" fill="#d5e3ef"/><path d="M410.764 381.673l-83.782 83.782-34.909-34.909-11.636 11.636 46.545 46.545 83.782-83.782a32.491 32.491 0 0 0 9.309-23.273 34.438 34.438 0 0 0-2.327-11.636 24.147 24.147 0 0 1-6.982 11.637z" fill="#b0c4d9"/><path d="M94.255 325.818c8.145-8.145 17.455-13.964 26.764-16.291l19.782-6.982 69.818 69.818-6.982 19.782a69.063 69.063 0 0 1-16.291 26.764z" fill="#99b4cd"/><path d="M140.8 302.546l-17.455 5.818 38.4 38.4c9.309 9.309 11.636 22.109 8.145 33.745a39.331 39.331 0 0 1-6.982 13.964l24.436 24.436c8.145-8.145 13.964-17.455 16.291-26.764l6.982-19.782z" fill="#6c9abb"/><path fill="#99b4cd" d="M129.164 174.546l-34.909 34.909 34.909 34.909 69.818-69.818z"/><path d="M125.673 217.6a11.248 11.248 0 0 1 0-16.291l26.764-26.764h-23.273l-34.909 34.909 34.909 34.909c6.982-6.982 6.982-16.291 0-23.273z" fill="#6c9abb"/><path d="M24.436 186.182l46.545 46.545 83.782-83.782a32.492 32.492 0 0 0 9.309-23.273c0-17.455-15.127-32.582-32.582-32.582a32.491 32.491 0 0 0-23.273 9.309z" fill="#d5e3ef"/><circle r="46.544998" cy="186.18201" cx="326.98199" fill="#70b7e5"/><path d="M326.982 244.364a58.182 58.182 0 1 1 58.182-58.182 57.617 57.617 0 0 1-58.182 58.182zm0-93.091c-19.782 0-34.909 15.127-34.909 34.909 0 19.782 15.127 34.909 34.909 34.909 19.782 0 34.909-15.127 34.909-34.909 0-19.782-15.127-34.909-34.909-34.909z" fill="#f04b4d"/><path d="M308.364 216.437c-3.491-5.818-4.655-11.636-4.655-18.618 0-19.782 15.127-34.909 34.909-34.909 6.982 0 12.8 2.327 18.618 4.655-6.982-9.309-17.455-16.291-30.255-16.291-19.782 0-34.909 15.127-34.909 34.909.001 12.799 6.983 23.272 16.292 30.254z" fill="#4c9cd6"/><path d="M292.073 360.728l-38.4 38.4a11.248 11.248 0 0 1-16.291 0L114.036 275.782a11.248 11.248 0 0 1 0-16.291l38.4-38.4z" fill="#f04d4e"/><path d="M205.964 332.8l-73.309-73.309c-4.655-4.655-12.8-4.655-18.618 0a11.248 11.248 0 0 0 0 16.291l123.345 123.345a11.248 11.248 0 0 0 16.291 0l38.4-38.4L251.346 320l-12.8 12.8c-9.31 9.309-23.273 9.309-32.582 0z" fill="#db343f"/><path fill="#f04d4e" d="M280.83530986 442.24187063l34.55772402-34.55772403 46.89956154 46.89956154-34.55772402 34.55772403z"/><path d="M350.255 442.182l-16.291 16.291c-6.982 6.982-16.291 6.982-23.273 0L287.418 435.2l-6.982 6.982 46.545 46.545 34.909-34.909z" fill="#db343f"/><path d="M198.982 215.273c-1.164 0-3.491 0-4.655-1.164a5.624 5.624 0 0 1 0-8.145l58.182-58.182a5.7593847 5.7593847 0 0 1 8.145 8.145l-58.182 58.182c.001 1.164-2.327 1.164-3.49 1.164zM280.436 133.818c-1.164 0-3.491 0-4.655-1.164a5.624 5.624 0 0 1 0-8.145l23.273-23.273a5.7593847 5.7593847 0 1 1 8.145 8.145l-23.273 23.273c.001 1.164-2.326 1.164-3.49 1.164z" fill="#ecf0f9"/><path d="M492.218 0h-3.491l-22.109 3.491c-36.073 5.818-69.818 17.455-102.4 33.745l55.855 55.855 55.855 55.855c16.291-32.582 26.764-66.327 33.745-102.4l3.491-20.946v-3.49c0-12.801-9.309-22.11-20.946-22.11z" fill="#f04d4e"/><path d="M408.436 47.709a6.4 6.4 0 0 1-5.818-3.491q-1.746-5.237 3.491-6.982c23.273-9.309 46.545-15.127 70.982-19.782 3.491 0 5.818 1.164 6.982 4.655 0 3.491-1.164 5.818-4.655 6.982-23.273 3.491-46.545 10.473-68.655 18.618zM326.982 129.164V128a57.617 57.617 0 0 0-58.182 58.182h1.164c5.818 0 10.473-3.491 11.636-9.309 1.164-8.145 5.818-15.127 10.473-20.945 6.982-6.982 15.127-12.8 25.6-15.127 5.818-1.164 9.309-5.819 9.309-11.637z" fill="#f26a56"/><path d="M326.982 243.2v1.164a57.617 57.617 0 0 0 58.182-58.182H384c-5.818 0-10.473 3.491-11.636 9.309-1.164 8.145-5.818 15.127-10.473 20.945-6.982 6.982-15.127 12.8-25.6 15.127-5.818 1.165-9.309 5.819-9.309 11.637z" fill="#db343f"/><path d="M350.255 401.455c-1.164 0-3.491 0-4.655-1.164a5.624 5.624 0 0 1 0-8.145l23.273-23.273a5.7593847 5.7593847 0 0 1 8.145 8.145l-23.273 23.273c0 1.164-2.327 1.164-3.49 1.164z" fill="#ecf0f9"/><path d="M154.764 125.673l-83.782 83.782-34.909-34.909-11.636 11.636 46.545 46.545 83.782-83.782a32.492 32.492 0 0 0 9.309-23.273 34.438 34.438 0 0 0-2.327-11.636 24.147 24.147 0 0 1-6.982 11.637z" fill="#b0c4d9"/><path d="M94.255 145.455c-1.164 0-3.491 0-4.655-1.164a5.624 5.624 0 0 1 0-8.145l23.273-23.273a5.7593847 5.7593847 0 0 1 8.145 8.145l-23.273 23.273c0 1.164-2.327 1.164-3.49 1.164z" fill="#ecf0f9"/><path fill="#f04d4e" d="M24.80443634 186.24250184l34.55772402-34.55772403 46.89956154 46.89956154-34.55772402 34.55772403z"/><path d="M94.255 186.182l-16.291 16.291c-6.982 6.982-16.291 6.982-23.273 0L31.418 179.2l-6.982 6.982 46.545 46.545 34.909-34.909zM446.836 119.855l29.091 29.091c16.291-32.582 26.764-66.327 33.745-102.4l3.491-20.946v-3.49a19.271 19.271 0 0 0-5.818-13.964c-12.8 39.563-33.745 77.963-60.509 111.709z" fill="#db343f"/></g></g></svg>