<svg xmlns="http://www.w3.org/2000/svg" xmlns:xlink="http://www.w3.org/1999/xlink" width="26" height="15"><defs><path id="a" d="M539.4 4116.73a13.1 13.1 0 0 0-2.6-3.07l-.03-.03-.01-.01-.02-.02h-.01c-.56-.53-.92-.89-1.07-1.07-.27-.36-.33-.71-.18-1.07.1-.27.5-.85 1.18-1.72l.86-1.12c1.52-2.02 2.17-3.31 1.97-3.87l-.08-.13c-.05-.08-.18-.15-.4-.22-.22-.07-.5-.08-.85-.03l-3.79.02a.5.5 0 0 0-.26 0l-.17.05-.07.03-.05.04a.59.59 0 0 0-.14.14.9.9 0 0 0-.14.23 21.48 21.48 0 0 1-2.3 4.38 4.75 4.75 0 0 1-1.18 1.34c-.15.1-.27.15-.35.14a9.06 9.06 0 0 1-.22-.06.88.88 0 0 1-.3-.32c-.07-.14-.12-.3-.15-.51a5.67 5.67 0 0 1-.04-1.17l.02-.55a32.44 32.44 0 0 1 .05-2.01l.01-.73a2.05 2.05 0 0 0-.18-1.02.7.7 0 0 0-.27-.31 1.52 1.52 0 0 0-.44-.18 8.76 8.76 0 0 0-1.78-.17c-1.63-.02-2.68.09-3.14.31-.19.1-.35.23-.5.4-.16.2-.18.3-.07.31.53.08.9.27 1.12.57l.08.16a6.1 6.1 0 0 1 .3 1.57 10.25 10.25 0 0 1-.3 3.32l-.16.3a.23.23 0 0 1-.07.06.99.99 0 0 1-.35.07c-.12 0-.27-.07-.45-.19-.17-.12-.36-.3-.54-.5-.2-.22-.4-.52-.64-.9-.24-.4-.49-.85-.74-1.38l-.21-.38a32.81 32.81 0 0 1-1.15-2.43.87.87 0 0 0-.31-.42l-.07-.04a1.4 1.4 0 0 0-.51-.2l-3.6.03c-.37 0-.62.08-.76.25l-.05.07a.42.42 0 0 0-.04.22c0 .1.03.21.08.35a43.44 43.44 0 0 0 3.33 6.36 32.8 32.8 0 0 0 2.7 3.58l.33.31c.2.21.52.47.92.76.41.3.86.58 1.36.87a7.36 7.36 0 0 0 3.65.91h1.52c.3-.02.54-.12.7-.29l.05-.06a1.34 1.34 0 0 0 .14-.6c0-.39.02-.73.09-1.03.06-.3.14-.53.22-.68a1.68 1.68 0 0 1 .5-.58.78.78 0 0 1 .11-.05c.21-.07.46 0 .75.2.28.21.55.47.8.77.25.3.55.64.9 1.02s.66.66.92.84l.26.16c.18.1.4.2.69.29.28.09.52.11.74.07l3.36-.06c.34 0 .6-.05.78-.16.18-.11.3-.23.33-.36a1.64 1.64 0 0 0-.09-.8z"/></defs><use fill="#fff" xlink:href="#a" transform="translate(-514 -4103)"/></svg>