<?xml version="1.0" encoding="UTF-8" standalone="no"?>
<svg
   xmlns:dc="http://purl.org/dc/elements/1.1/"
   xmlns:cc="http://creativecommons.org/ns#"
   xmlns:rdf="http://www.w3.org/1999/02/22-rdf-syntax-ns#"
   xmlns:svg="http://www.w3.org/2000/svg"
   xmlns="http://www.w3.org/2000/svg"
   xml:space="preserve"
   viewBox="0 0 20 20"
   height="20"
   width="20"
   y="0px"
   x="0px"
   id="Capa_1"
   version="1.1"><metadata
     id="metadata41"><rdf:RDF><cc:Work
         rdf:about=""><dc:format>image/svg+xml</dc:format><dc:type
           rdf:resource="http://purl.org/dc/dcmitype/StillImage" /><dc:title></dc:title></cc:Work></rdf:RDF></metadata><defs
     id="defs39" /><g
     transform="matrix(0.0462385,0,0,0.04623807,-9.2477e-5,0)"
     id="g4"><path
       style="fill:#4d84ff;fill-opacity:1"
       id="path2"
       d="M 421.985,229.833 217.847,25.981 C 210.612,18.743 200.907,12.607 188.726,7.565 176.541,2.522 165.407,0 155.318,0 H 36.547 C 26.648,0 18.083,3.619 10.85,10.848 3.617,18.081 0.002,26.646 0.002,36.545 v 118.771 c 0,10.088 2.519,21.219 7.564,33.404 5.045,12.185 11.182,21.792 18.417,28.837 L 230.118,421.98 c 7.043,7.043 15.602,10.564 25.697,10.564 9.89,0 18.558,-3.521 25.98,-10.564 L 421.981,281.51 c 7.043,-7.046 10.561,-15.604 10.561,-25.693 0,-9.898 -3.518,-18.559 -10.557,-25.984 z M 117.202,117.201 c -7.142,7.138 -15.752,10.709 -25.841,10.709 -10.085,0 -18.699,-3.571 -25.837,-10.709 -7.138,-7.139 -10.706,-15.749 -10.706,-25.837 0,-10.089 3.568,-18.702 10.706,-25.837 7.139,-7.139 15.752,-10.71 25.837,-10.71 10.089,0 18.702,3.571 25.841,10.71 7.135,7.135 10.706,15.749 10.706,25.837 0,10.088 -3.567,18.698 -10.706,25.837 z" /></g><g
     transform="translate(0,-412.54401)"
     id="g6" /><g
     transform="translate(0,-412.54401)"
     id="g8" /><g
     transform="translate(0,-412.54401)"
     id="g10" /><g
     transform="translate(0,-412.54401)"
     id="g12" /><g
     transform="translate(0,-412.54401)"
     id="g14" /><g
     transform="translate(0,-412.54401)"
     id="g16" /><g
     transform="translate(0,-412.54401)"
     id="g18" /><g
     transform="translate(0,-412.54401)"
     id="g20" /><g
     transform="translate(0,-412.54401)"
     id="g22" /><g
     transform="translate(0,-412.54401)"
     id="g24" /><g
     transform="translate(0,-412.54401)"
     id="g26" /><g
     transform="translate(0,-412.54401)"
     id="g28" /><g
     transform="translate(0,-412.54401)"
     id="g30" /><g
     transform="translate(0,-412.54401)"
     id="g32" /><g
     transform="translate(0,-412.54401)"
     id="g34" /></svg>